<svg xmlns="http://www.w3.org/2000/svg" width="100%" height="100%" viewBox="0 0 100 100" fill="none" preserveAspectRatio="xMidYMid meet" aria-hidden="true" role="img">
<path d="M38.6277 63.607L71.8694 39.0737C73.5007 37.8737 75.8319 38.3362 76.6069 40.2091C80.6944 50.0591 78.8652 61.8987 70.734 70.032C62.6027 78.1591 51.2902 79.9404 40.9444 75.882L29.6465 81.1133C45.8507 92.1862 65.5298 89.4466 77.8236 77.1487C87.5777 67.4008 90.5965 54.1112 87.7715 42.1237L87.7944 42.1466C83.6986 24.5383 88.7986 17.5029 99.2548 3.11536C99.4965 2.7737 99.7486 2.42786 99.9986 2.08203L86.2444 15.8299V15.7841L38.6194 63.6133" fill="black"/>
<path d="M31.7667 69.5691C20.1375 58.467 22.1437 41.2795 32.0625 31.3629C39.3979 24.0254 51.425 21.0337 61.9187 25.4316L73.1937 20.2295C71.1646 18.7629 68.5604 17.1879 65.5708 16.0754C52.075 10.5212 35.9083 13.2837 24.9354 24.2462C14.3833 34.7962 11.0625 51.0191 16.7604 64.8629C21.0187 75.2066 14.0375 82.5295 7.00625 89.9108C4.50833 92.5254 2.01458 95.1483 0 97.9191L31.7521 69.5691" fill="black"/>
</svg>