<svg xmlns="http://www.w3.org/2000/svg" width="100%" height="100%" viewBox="0 0 100 100" fill="none" preserveAspectRatio="xMidYMid meet" aria-hidden="true" role="img">
<path d="M93.3213 29.54H83.6938V0.281667L52.4047 26.7575V0.657083H47.5905V26.4762L18.7076 0V29.54H6.67383V72.8633H18.708V100L47.5913 73.5037V99.3392H52.4055V74.1437L81.288 99.8967V72.8638H93.3222L93.3213 29.54ZM78.8809 10.6608V29.54H56.5684L78.8809 10.6608ZM23.5217 10.9425L43.8097 29.54H23.5217V10.9425ZM11.4876 68.05V34.3542H44.1859L18.7072 59.8321V68.05H11.4876ZM23.5217 89.0517V72.8633L23.5222 61.8267L47.5901 37.7583V66.9712L23.5217 89.0517ZM76.4742 89.155L52.4051 67.6929V37.7575L76.4742 61.8267V89.155ZM88.5084 68.05H81.2876V59.8321L55.8092 34.3542H88.5084V68.05Z" fill="black"/>
</svg>