<svg width="1000" height="970" viewBox="0 0 1000 970" fill="none" xmlns="http://www.w3.org/2000/svg">
<path d="M291.917 0.0970444C231.164 0.0970444 173.709 31.4797 124.645 63.4769C118.157 68.4512 110.792 74.5637 104.761 80.5439C6.53797 164.513 -24.3889 317.015 19.5112 433.711C63.4112 550.407 173.996 629.209 295.485 635.816C306.925 636.43 318.577 635.816 330.037 635.816C406.127 635.816 478.149 595.771 548.443 573.934C618.718 552.077 691.776 504.869 761.935 557.071C768.98 562.314 775.967 569.344 781.131 576.277C795.566 595.694 805.605 619.049 806.085 643.498C806.356 650.962 806.604 658.922 806.085 666.545C802.783 715.04 757.213 770.584 706.268 774.099C656.632 775.801 604.804 777.94 552.704 777.94C502.108 777.94 447.401 777.722 395.301 777.94C343.745 777.722 290.958 777.722 237.898 777.94C185.382 777.722 131.635 777.722 78.5757 777.94C78.5757 841.973 78.5757 905.986 78.5757 970C291.646 970 504.716 970 717.785 970C879.699 958.976 1002.57 804.483 999.959 647.339C997.349 490.196 870.294 339.448 708.188 336.202C694.77 335.933 681.314 336.202 667.877 336.202C626.549 336.202 585.624 352.393 548.251 364.397C510.877 376.4 478.303 392.706 441.428 403.461C404.534 414.236 369.291 437.994 330.037 437.994C320.976 438.877 310.169 438.858 301.243 437.994C256.71 437.994 222.58 407.898 202.041 368.238C181.521 328.577 194.478 273.437 220.622 238.251C226.439 230.415 233.714 224.02 241.737 219.045C260.261 207.56 279.053 198.764 301.243 197.919C301.205 197.919 300.453 197.952 300.453 197.952C305.282 197.919 330.308 194.82 339.634 194.078C351.423 193.859 370.865 193.405 383.784 194.078C396.703 194.75 413.825 193.79 427.934 194.078C442.042 194.366 459.453 193.943 474.003 194.078C488.553 194.212 503.429 194.02 518.152 194.078C532.875 194.135 547.425 194.058 562.302 194.078C577.178 194.097 593.456 194.058 608.371 194.078C623.286 194.097 637.683 194.078 652.521 194.078C667.359 194.078 681.813 194.078 696.67 194.078C711.528 194.078 725.867 194.078 740.82 194.078C755.773 194.078 771.917 194.078 786.889 194.078C801.862 194.078 816.105 194.078 831.039 194.078C845.973 194.078 860.158 194.078 875.188 194.078C890.219 194.078 905.444 193.859 920.57 193.859C920.841 130.261 922.489 62.2982 922.489 0.0970571C913.163 -0.121303 880.259 0.0970221 873.269 0.0970444C860.104 0.0970444 837.568 0.304119 821.441 0.0970444C804.437 -0.1213 786.201 0.0970989 769.613 0.0970444C753.025 0.0969775 736.539 0.365928 719.705 0.0970444C702.871 -0.17184 684.923 0.231486 667.877 0.0970444C650.832 -0.0373976 633.153 0.154662 616.049 0.0970444C598.946 0.0394264 581.286 0.11625 564.222 0.0970444C547.157 0.0778384 531.378 0.11625 514.313 0.0970444C497.248 0.0778384 479.627 0.0970444 462.485 0.0970444C445.344 0.0970444 427.78 0.0970444 410.658 0.0970444C393.535 0.0970444 375.856 0.0970444 358.83 0.0970444C341.803 0.0970444 325.852 0.0970444 308.922 0.0970444C304.394 0.0970444 297.868 0.0970444 291.917 0.0970444Z" fill="#0000FF"/>
</svg>
